<svg width="15" height="13" viewBox="0 0 15 13" fill="none" xmlns="http://www.w3.org/2000/svg">
<path d="M7.52447 12.7324L6.55449 11.8823C5.42842 10.8905 4.49746 10.0349 3.76162 9.31553C3.02577 8.59618 2.44044 7.95041 2.00562 7.3782C1.57081 6.80599 1.26699 6.28011 1.09418 5.80054C0.921367 5.32098 0.834961 4.83051 0.834961 4.32915C0.834961 3.30463 1.18616 2.44904 1.88856 1.76239C2.59096 1.07575 3.46617 0.732422 4.51419 0.732422C5.09395 0.732422 5.64583 0.852313 6.16984 1.09209C6.69385 1.33188 7.14539 1.66975 7.52447 2.10572C7.90354 1.66975 8.35508 1.33188 8.87909 1.09209C9.4031 0.852313 9.95499 0.732422 10.5347 0.732422C11.5828 0.732422 12.458 1.07575 13.1604 1.76239C13.8628 2.44904 14.214 3.30463 14.214 4.32915C14.214 4.83051 14.1276 5.32098 13.9548 5.80054C13.7819 6.28011 13.4781 6.80599 13.0433 7.3782C12.6085 7.95041 12.0232 8.59618 11.2873 9.31553C10.5515 10.0349 9.62051 10.8905 8.49444 11.8823L7.52447 12.7324Z" fill="#322A44"/>
</svg>
